<svg width="408" height="304" viewBox="0 0 408 304" fill="none" xmlns="http://www.w3.org/2000/svg">
<path opacity="0.1" d="M40.9608 30.3399C38.4263 31.3914 35.8251 32.7411 34.4323 35.1069C32.9571 37.6061 33.1336 40.7095 33.4083 43.601C35.8016 68.6794 42.1064 95.3506 31.219 118.067C25.9342 129.088 17.0948 137.919 10.0641 147.928C3.03334 157.937 -2.27502 170.433 0.989249 182.207C4.97542 196.594 19.8529 204.57 29.8811 215.642C36.445 222.881 41.0471 231.677 47.1716 239.292C53.296 246.908 61.6881 253.617 71.4652 254.064C85.5267 254.711 96.9673 242.568 110.754 239.755C124.878 236.875 139.101 244.204 150.553 252.977C162.005 261.75 172.422 272.378 185.766 277.855C200.502 283.909 217.113 282.983 232.627 286.62C246.751 289.935 259.753 296.986 273.775 300.744C287.797 304.503 304.233 304.275 315.096 294.675C329.256 282.12 328.142 259.757 337.185 243.149C345.585 227.718 362.028 218.506 373.096 204.864C393.011 180.312 392.36 142.785 375.45 116.082C358.54 89.3792 327.91 73.2109 296.59 69.0011C282.466 67.1061 267.921 67.365 254.343 63.0532C217.996 51.5184 196.367 10.1894 159.259 1.58929C135.672 -3.86815 112.732 5.58331 92.6398 17.2162C75.2003 27.315 59.1105 22.8109 40.9608 30.3399Z" fill="#F50057"/>
<path d="M76.3807 111.358C76.3807 111.358 62.9902 123.995 48.6188 124.372C42.5838 124.492 36.7507 126.567 31.9953 130.284C29.7476 132.061 27.6673 134.04 25.7807 136.197" stroke="#535461" stroke-width="0.784679" stroke-miterlimit="10"/>
<path d="M16.7176 136.507C18.6479 135.526 26.0161 136.177 26.0161 136.177C26.0161 136.177 22.1947 142.513 20.2644 143.494C19.8021 143.768 19.2884 143.944 18.7552 144.012C18.222 144.079 17.6807 144.036 17.1648 143.886C16.6488 143.735 16.1694 143.48 15.756 143.137C15.3427 142.793 15.0044 142.369 14.762 141.889C14.5196 141.409 14.3783 140.885 14.347 140.348C14.3156 139.812 14.3948 139.275 14.5796 138.77C14.7644 138.265 15.051 137.804 15.4215 137.415C15.7919 137.025 16.2384 136.716 16.7333 136.507H16.7176Z" fill="#F50057"/>
<path d="M24.4741 125.305C26.6281 125.533 32.4583 130.084 32.4583 130.084C32.4583 130.084 25.7885 133.325 23.6541 133.101C22.6556 132.95 21.7537 132.42 21.1361 131.621C20.5185 130.822 20.2328 129.816 20.3384 128.811C20.444 127.807 20.9329 126.882 21.7032 126.229C22.4736 125.576 23.466 125.245 24.4741 125.305Z" fill="#F50057"/>
<path d="M42.867 116.278C44.609 117.561 47.3476 124.434 47.3476 124.434C47.3476 124.434 39.9676 123.873 38.2257 122.594C37.4405 121.96 36.93 121.047 36.8004 120.046C36.6708 119.045 36.932 118.033 37.5297 117.219C38.1274 116.406 39.0156 115.854 40.0096 115.679C41.0037 115.503 42.0271 115.718 42.867 116.278Z" fill="#F50057"/>
<path d="M58.3213 112.586C60.2555 113.555 64.1161 119.868 64.1161 119.868C64.1161 119.868 56.748 120.562 54.8138 119.593C54.3257 119.38 53.8862 119.07 53.5219 118.681C53.1577 118.293 52.8763 117.834 52.6949 117.334C52.5136 116.833 52.4361 116.301 52.4671 115.769C52.4981 115.237 52.637 114.718 52.8754 114.241C53.1138 113.765 53.4466 113.342 53.8536 112.999C54.2606 112.656 54.7332 112.399 55.2427 112.244C55.7522 112.089 56.2879 112.039 56.8172 112.098C57.3465 112.157 57.8582 112.323 58.3213 112.586Z" fill="#F50057"/>
<path d="M36.5582 137.229C37.2016 135.161 35.3184 128.005 35.3184 128.005C35.3184 128.005 29.7157 132.838 29.0723 134.906C28.891 135.405 28.8129 135.936 28.8426 136.466C28.8724 136.996 29.0095 137.515 29.2456 137.99C29.4816 138.466 29.8118 138.888 30.216 139.233C30.6202 139.577 31.0901 139.836 31.5972 139.993C32.1043 140.15 32.6381 140.203 33.1662 140.148C33.6943 140.093 34.2058 139.931 34.6696 139.673C35.1334 139.415 35.5399 139.065 35.8645 138.645C36.1892 138.224 36.4251 137.743 36.5582 137.229Z" fill="#F50057"/>
<path d="M54.5784 132.666C54.5784 130.5 50.6353 124.238 50.6353 124.238C50.6353 124.238 46.7355 130.516 46.7394 132.689C46.7425 133.73 47.1589 134.727 47.8969 135.46C48.6349 136.194 49.634 136.604 50.6746 136.601C51.7151 136.598 52.7118 136.181 53.4454 135.443C54.179 134.705 54.5893 133.706 54.5862 132.666H54.5784Z" fill="#F50057"/>
<path d="M71.4843 125.855C71.8452 123.72 69.0204 116.882 69.0204 116.882C69.0204 116.882 64.1122 122.422 63.7552 124.556C63.6346 125.557 63.9043 126.567 64.5082 127.374C65.1121 128.182 66.0039 128.726 66.9985 128.894C67.993 129.062 69.0139 128.84 69.8492 128.275C70.6845 127.709 71.27 126.844 71.4843 125.859V125.855Z" fill="#F50057"/>
<path d="M93.7809 77.8912C93.7809 77.8912 77.6519 69.0321 72.8575 55.4611C70.8878 49.7544 67.1197 44.8409 62.1191 41.4585C59.7329 39.8706 57.2061 38.5048 54.5705 37.3782" stroke="#535461" stroke-width="0.784679" stroke-miterlimit="10"/>
<path d="M51.5103 28.8448C53.0365 30.3788 54.6804 37.594 54.6804 37.594C54.6804 37.594 47.4771 35.9069 45.9509 34.3689C45.2769 33.6205 44.9166 32.6415 44.9445 31.6347C44.9725 30.6279 45.3865 29.6704 46.101 28.9604C46.8154 28.2505 47.7756 27.8426 48.7825 27.821C49.7895 27.7995 50.7662 28.166 51.5103 28.8448Z" fill="#F50057"/>
<path d="M64.5556 32.7801C65.0028 34.8987 62.4644 41.847 62.4644 41.847C62.4644 41.847 57.3365 36.5151 56.8893 34.3926C56.7565 33.8793 56.7292 33.3444 56.8089 32.8202C56.8886 32.296 57.0738 31.7934 57.3532 31.3428C57.6326 30.8922 58.0004 30.5028 58.4345 30.1983C58.8685 29.8938 59.3598 29.6805 59.8786 29.5711C60.3974 29.4618 60.933 29.4588 61.4531 29.5622C61.9731 29.6656 62.4668 29.8734 62.9042 30.1729C63.3417 30.4725 63.714 30.8576 63.9985 31.305C64.283 31.7525 64.4738 32.2529 64.5595 32.7761L64.5556 32.7801Z" fill="#F50057"/>
<path d="M78.7975 47.528C78.1148 49.58 72.4141 54.2998 72.4141 54.2998C72.4141 54.2998 70.68 47.1082 71.3627 45.0524C71.691 44.0638 72.3985 43.2462 73.3296 42.7794C74.2607 42.3125 75.3392 42.2347 76.3277 42.563C77.3162 42.8913 78.1339 43.5988 78.6007 44.5299C79.0676 45.4611 79.1454 46.5395 78.8171 47.528H78.7975Z" fill="#F50057"/>
<path d="M87.068 61.0834C86.7424 63.2216 81.9205 68.836 81.9205 68.836C81.9205 68.836 78.9937 62.0407 79.3193 59.9024C79.3736 59.374 79.5346 58.8621 79.7926 58.3977C80.0506 57.9333 80.4002 57.5262 80.8202 57.201C81.2402 56.8758 81.7219 56.6392 82.2361 56.5057C82.7503 56.3722 83.2862 56.3445 83.8114 56.4243C84.3366 56.504 84.8401 56.6896 85.2914 56.9698C85.7428 57.25 86.1325 57.6189 86.437 58.0542C86.7415 58.4894 86.9545 58.982 87.0629 59.5021C87.1714 60.0221 87.1731 60.5587 87.068 61.0795V61.0834Z" fill="#F50057"/>
<path d="M56.9206 47.9478C59.0864 47.9243 65.3167 43.9303 65.3167 43.9303C65.3167 43.9303 58.9961 40.0853 56.8304 40.1089C55.7898 40.1208 54.7967 40.5457 54.0693 41.2899C53.342 42.0342 52.9402 43.0368 52.9521 44.0774C52.9641 45.1179 53.3889 46.1111 54.1332 46.8384C54.8774 47.5658 55.8801 47.9676 56.9206 47.9557V47.9478Z" fill="#F50057"/>
<path d="M66.7919 63.6963C68.8478 63.0254 73.599 57.3522 73.599 57.3522C73.599 57.3522 66.4153 55.5749 64.3594 56.2458C63.8521 56.3906 63.3791 56.6362 62.9689 56.968C62.5587 57.2997 62.2196 57.7108 61.9719 58.1767C61.7242 58.6425 61.5731 59.1535 61.5274 59.6791C61.4818 60.2047 61.5426 60.7341 61.7063 61.2357C61.8699 61.7372 62.1331 62.2006 62.4799 62.5982C62.8268 62.9957 63.2503 63.3191 63.7251 63.5492C64.1999 63.7793 64.7162 63.9113 65.2431 63.9372C65.7701 63.9632 66.2968 63.8826 66.7919 63.7003V63.6963Z" fill="#F50057"/>
<path d="M78.4836 77.6872C80.6258 77.3733 86.2677 72.5868 86.2677 72.5868C86.2677 72.5868 79.488 69.6207 77.3498 69.9346C76.8232 69.9889 76.313 70.1491 75.8499 70.4058C75.3869 70.6625 74.9806 71.0102 74.6555 71.428C74.3304 71.8459 74.0932 72.3252 73.9583 72.8371C73.8233 73.349 73.7933 73.8829 73.8702 74.4067C73.947 74.9305 74.1291 75.4333 74.4054 75.8849C74.6817 76.3365 75.0465 76.7275 75.4779 77.0344C75.9093 77.3412 76.3984 77.5576 76.9156 77.6705C77.4328 77.7834 77.9675 77.7904 78.4876 77.6911L78.4836 77.6872Z" fill="#F50057"/>
<path d="M204.778 292.846C283.217 292.846 346.805 229.259 346.805 150.819C346.805 72.38 283.217 8.79236 204.778 8.79236C126.338 8.79236 62.7508 72.38 62.7508 150.819C62.7508 229.259 126.338 292.846 204.778 292.846Z" fill="url(#paint0_linear)"/>
<path d="M204.778 290.492C281.917 290.492 344.451 227.959 344.451 150.819C344.451 73.6801 281.917 11.1464 204.778 11.1464C127.639 11.1464 65.1048 73.6801 65.1048 150.819C65.1048 227.959 127.639 290.492 204.778 290.492Z" fill="#F50057"/>
<path d="M204.778 261.851C266.099 261.851 315.81 212.141 315.81 150.819C315.81 89.4979 266.099 39.7871 204.778 39.7871C143.456 39.7871 93.7456 89.4979 93.7456 150.819C93.7456 212.141 143.456 261.851 204.778 261.851Z" fill="#DDE1EC"/>
<path opacity="0.3" d="M207.917 59.4042H201.639V157.489H207.917V59.4042Z" fill="#535461"/>
<g opacity="0.1">
<path opacity="0.1" d="M300.116 148.465H211.448V156.312H300.116V148.465Z" fill="#1B1A1F"/>
<path opacity="0.1" d="M148.846 119.108L145.206 126.059L200.997 155.276L204.638 148.325L148.846 119.108Z" fill="#1B1A1F"/>
<path opacity="0.1" d="M204.778 164.159C211.278 164.159 216.548 158.889 216.548 152.389C216.548 145.888 211.278 140.618 204.778 140.618C198.277 140.618 193.008 145.888 193.008 152.389C193.008 158.889 198.277 164.159 204.778 164.159Z" fill="#1B1A1F"/>
</g>
<path d="M300.116 146.896H211.448V154.743H300.116V146.896Z" fill="#535461"/>
<path d="M204.663 146.764L148.872 117.548L145.232 124.499L201.023 153.716L204.663 146.764Z" fill="#535461"/>
<path d="M204.778 162.589C211.278 162.589 216.548 157.32 216.548 150.819C216.548 144.319 211.278 139.049 204.778 139.049C198.277 139.049 193.008 144.319 193.008 150.819C193.008 157.32 198.277 162.589 204.778 162.589Z" fill="#535461"/>
<g opacity="0.1">
<path opacity="0.1" d="M102.369 164.159C102.369 102.836 152.079 53.1267 213.401 53.1267C230.613 53.1114 247.592 57.1041 262.993 64.7883C278.394 72.4725 291.795 83.6373 302.133 97.3983C283.238 63.0607 246.75 39.7871 204.77 39.7871C143.447 39.7871 93.7378 89.4965 93.7378 150.819C93.7017 174.91 101.537 198.352 116.05 217.58C107.05 201.215 102.343 182.836 102.369 164.159Z" fill="#1B1A1F"/>
</g>
<path d="M307.367 69.1421C306.048 67.8748 294.953 76.2042 294.953 76.2042C294.953 76.2042 291.002 76.9261 291.944 79.6372C292.885 82.3482 287.805 97.5318 287.805 97.5318L285.737 94.6402C285.937 91.2465 285.003 88.8415 284.093 87.3427C284.019 87.2211 283.944 87.1034 283.87 86.9935L284.23 86.868C284.093 85.0161 281.131 82.1952 279.558 80.8142C279.558 80.6141 279.558 80.4219 279.558 80.2178C279.656 78.005 280.542 75.6706 279.558 73.6658C278.443 71.3784 275.183 70.2289 274.909 67.7179C274.744 66.2192 275.756 64.8656 276.203 63.4218C277.27 59.9692 275.054 56.446 272.935 53.472C272.217 52.357 271.344 51.3503 270.342 50.4824C269.387 49.7843 268.338 49.2242 267.226 48.8189C264.123 47.5634 260.949 46.9317 257.748 46.0725C254.676 45.2564 251.843 44.868 248.724 45.892C247.984 46.0916 247.308 46.4796 246.762 47.018C246.021 47.8498 245.922 49.0347 245.436 50.0273C244.651 51.6241 242.96 52.5775 241.465 53.6015C239.971 54.6255 238.472 56.0301 238.464 57.7956C238.464 60.3027 241.328 61.8799 242.285 64.2143C243.18 66.3879 242.285 68.8086 241.787 71.0999C241.579 71.8404 241.559 72.6212 241.728 73.3715C241.926 73.9307 242.224 74.4492 242.607 74.9016C243.2 75.6863 243.835 76.4161 244.467 77.1615L244.177 77.2753C238.911 76.7339 235.525 83.4193 235.525 83.4193C235.769 83.4703 236 83.5292 236.228 83.5959L236.004 83.8862C234.413 85.9524 233.113 88.2269 232.14 90.6462L227.824 96.4293C227.824 96.4293 226.882 81.9677 229.142 78.7152C231.402 75.4627 227.074 73.4735 227.074 73.4735C227.074 73.4735 217.658 62.9902 216.352 63.8926C215.045 64.795 219.549 76.1846 223.5 77.9933C223.5 77.9933 223.893 81.6067 223.108 83.9568C222.633 85.4438 220.099 101.13 220.099 101.13C220.099 101.13 217.843 114.324 228.189 107.799C234.909 103.57 239.253 96.2881 241.465 91.7134C241.62 91.3917 241.765 91.0843 241.901 90.7914C242.003 91.2766 242.073 91.7681 242.109 92.2627L242.501 107.38C242.601 111.119 241.784 114.825 240.124 118.177L235.514 127.526L236.028 127.683L235.718 128.13C232.681 132.599 227.518 142.647 238.146 147.767L252.271 149.576L251.517 153.189C251.517 153.189 245.687 164.214 243.992 171.806C242.939 176.455 241.295 180.949 239.1 185.18L239.535 185.412C239.445 185.514 239.351 185.62 239.261 185.73C238.404 186.693 237.838 187.879 237.628 189.151L235.714 191.866C235.714 191.866 234.96 203.071 236.467 205.786C237.291 207.269 240.026 208.211 242.352 208.76C245.805 209.58 248.59 206.014 246.758 203.075L246.735 203.036H246.699C246.307 201.211 245.106 195.55 245.499 193.4C245.609 192.788 245.711 192.18 245.762 191.56C245.856 190.745 246.104 189.956 246.491 189.233C246.554 189.112 246.621 188.994 246.688 188.876L246.892 188.963C247.523 189.233 248.147 189.488 248.739 189.712C247.821 190.548 247.17 192.278 247.955 195.836C247.955 195.836 248.029 204.739 248.708 206.139C249.387 207.54 256.982 209.392 258.301 207.948C259.619 206.504 257.453 201.529 257.453 201.529L257.387 201.576C256.951 198.693 256.414 193.529 257.736 191.497C258.269 190.677 258.787 189.83 259.25 189.037L259.537 188.547C261.993 189.771 264.59 190.693 266.01 190.053C266.01 190.053 272.217 175.592 271.84 173.787C271.464 171.982 281.433 151.553 281.433 151.553C281.433 151.553 289.896 142.137 279.554 135.648C276.27 133.58 273.877 132.191 272.139 131.253L270.683 123.642C269.935 119.652 270.069 115.546 271.075 111.613L272.645 105.626L272.774 105.116C272.774 105.116 276.725 96.9825 276.537 93.1847C276.522 92.8896 276.555 92.5942 276.635 92.3097C276.678 92.4902 276.725 92.6785 276.776 92.8747C277.814 96.822 279.182 100.675 280.864 104.394C283.866 111.166 288.319 110.628 290.759 109.667C291.281 109.465 291.745 109.136 292.109 108.71C292.473 108.284 292.725 107.774 292.842 107.226C293.721 103.013 296.134 91.2073 296.287 87.9469C296.424 85.3975 296.738 82.8607 297.229 80.3552C303.42 76.7339 308.685 70.4093 307.367 69.1421Z" fill="url(#paint1_linear)"/>
<path d="M261.31 184.969C261.31 184.969 260.482 186.628 259.348 188.621C258.905 189.406 258.411 190.249 257.904 191.062C256.111 193.93 257.904 203.067 257.904 203.067L253.981 203.605L250.058 201.643L249.34 195.012V190.163L253.812 185.161L255.774 182.995L261.31 184.969Z" fill="#F8BDC5"/>
<g opacity="0.1">
<path opacity="0.1" d="M261.31 184.969C261.31 184.969 260.482 186.628 259.348 188.621C257.616 187.696 255.942 186.666 254.334 185.537L253.989 185.294L253.805 185.161L255.766 182.995L261.31 184.969Z" fill="#1B1A1F"/>
</g>
<path d="M280.492 151.455C280.492 151.455 270.993 171.703 271.354 173.496C271.715 175.289 265.798 189.626 265.798 189.626C264.449 190.261 261.969 189.347 259.631 188.135C257.867 187.195 256.164 186.147 254.53 184.996L254.185 184.753L253.977 184.604L269.569 141.415L255.774 131.296L254.754 130.547L248.586 125.996L267.419 129.401C267.419 129.401 268.074 129.319 271.538 131.257C273.202 132.187 275.513 133.58 278.706 135.675C288.55 142.137 280.492 151.455 280.492 151.455Z" fill="#5E52AD"/>
<g opacity="0.03">
<path opacity="0.03" d="M280.492 151.455C280.492 151.455 270.993 171.703 271.354 173.496C271.715 175.289 265.798 189.626 265.798 189.626C264.449 190.261 261.969 189.347 259.631 188.135C257.867 187.195 256.164 186.147 254.53 184.996L254.185 184.753L253.977 184.604L269.569 141.415L255.774 131.296L254.754 130.547L248.586 125.996L267.419 129.401C267.419 129.401 268.074 129.319 271.538 131.257C273.202 132.187 275.513 133.58 278.706 135.675C288.55 142.137 280.492 151.455 280.492 151.455Z" fill="#1B1A1F"/>
</g>
<path d="M251.635 188.551C251.635 188.551 246.974 187.833 248.59 195.362C248.59 195.362 248.661 204.189 249.308 205.562C249.956 206.936 257.194 208.788 258.446 207.355C259.697 205.923 257.638 200.996 257.638 200.996C257.638 200.996 252.353 204.848 250.917 200.725C249.481 196.601 251.635 188.551 251.635 188.551Z" fill="#5D3E53"/>
<path d="M248.406 187.119C247.897 187.603 247.484 188.178 247.186 188.813C246.816 189.534 246.58 190.316 246.491 191.12C246.444 191.732 246.346 192.341 246.244 192.945C245.797 195.499 247.511 203.067 247.511 203.067L240.7 204.142L238.193 201.455L237.656 195.542C238.325 193.515 238.687 191.399 238.731 189.265C238.731 187.723 239.516 186.346 240.3 185.341C240.832 184.671 241.442 184.067 242.117 183.54C242.117 183.54 249.842 185.863 248.406 187.119Z" fill="#F8BDC5"/>
<g opacity="0.1">
<path opacity="0.1" d="M248.406 187.118C247.897 187.603 247.484 188.178 247.186 188.813C244.396 187.554 241.465 185.965 240.398 185.377L240.316 185.333C240.848 184.663 241.458 184.059 242.132 183.533C242.132 183.533 249.842 185.863 248.406 187.118Z" fill="#1B1A1F"/>
</g>
<path d="M270.451 146.08C270.451 146.08 265.975 154.503 263.103 161.491C261.22 166.081 257.328 177.012 254.864 183.972L254.503 185C253.42 188.08 252.698 190.163 252.698 190.163C252.221 190.166 251.746 190.096 251.29 189.955C250.866 189.841 250.391 189.688 249.885 189.5L249.316 189.284C248.751 189.065 248.139 188.809 247.555 188.543C244.706 187.272 241.669 185.616 240.567 185.012L240.151 184.78C242.254 180.567 243.824 176.108 244.824 171.507C246.436 163.982 251.992 153.067 251.992 153.067L252.71 149.481L239.268 147.688C229.142 142.627 234.062 132.65 236.954 128.22C237.447 127.452 237.98 126.709 238.55 125.996L249.304 128.35C249.304 128.35 250.999 128.891 254.766 130.559L256.496 131.344C258.607 132.313 261.204 133.56 264.343 135.161C274.928 140.512 270.451 146.08 270.451 146.08Z" fill="#5E52AD"/>
<path d="M247.445 202.53C247.828 203.176 248.012 203.921 247.973 204.671C247.933 205.422 247.673 206.144 247.224 206.746C246.775 207.349 246.158 207.805 245.45 208.057C244.742 208.309 243.975 208.346 243.247 208.164C241.046 207.618 238.437 206.685 237.652 205.213C236.22 202.526 236.934 191.415 236.934 191.415L238.817 188.637C238.817 188.637 237.832 200.913 240.163 201.976C242.493 203.04 247.421 202.475 247.421 202.475L247.445 202.53Z" fill="#5D3E53"/>
<path d="M249.351 46.6884C248.636 46.8876 247.986 47.2735 247.468 47.8066C246.762 48.6305 246.684 49.8075 246.205 50.7923C245.459 52.3617 243.851 53.3229 242.423 54.3234C240.995 55.3238 239.57 56.7323 239.563 58.4822C239.563 60.9696 242.309 62.5311 243.203 64.842C244.055 66.9999 243.203 69.3971 242.729 71.6687C242.531 72.4042 242.512 73.1765 242.674 73.9207C242.861 74.4728 243.145 74.987 243.513 75.4391C245.244 77.7931 247.394 79.8804 248.551 82.5601C249.43 84.5963 249.673 86.8444 249.905 89.0533C250.238 92.2312 250.572 95.468 249.967 98.6068C249.909 98.7945 249.909 98.9957 249.967 99.1835C250.07 99.3635 250.233 99.5022 250.426 99.5758C251.568 100.131 252.81 100.449 254.078 100.511C255.346 100.574 256.613 100.379 257.804 99.9393C258.994 99.4995 260.084 98.8236 261.007 97.952C261.929 97.0805 262.667 96.0314 263.174 94.8678C263.958 93.0905 264.26 90.9444 265.814 89.7909C265.995 89.6409 266.213 89.542 266.446 89.5045C266.812 89.5146 267.167 89.6334 267.466 89.8458C269.482 90.9365 271.927 90.9679 274.175 90.5206C275.532 90.2499 276.921 89.7673 277.82 88.708C279.589 86.6051 278.604 83.4624 278.722 80.72C278.816 78.5268 279.66 76.212 278.722 74.2268C277.663 71.959 274.551 70.8213 274.292 68.3417C274.136 66.8586 275.101 65.5129 275.528 64.0848C276.544 60.6597 274.434 57.1678 272.417 54.2214C271.739 53.1222 270.908 52.1249 269.949 51.2592C269.045 50.5704 268.046 50.0155 266.983 49.6114C264.029 48.3677 261.016 47.7399 257.959 46.8925C255.033 46.0568 252.337 45.6684 249.351 46.6884Z" fill="#85555C"/>
<path d="M264.358 97.8731H253.961V81.026C254.27 79.408 254.451 77.7682 254.503 76.1217C254.503 75.5685 254.503 75.0036 254.503 74.4347C254.405 72.4259 253.989 70.421 252.898 69.1969C250.03 65.9719 262.216 66.5094 262.216 66.5094C262.59 67.9903 263.076 69.4409 263.668 70.8487C264.551 73.0454 265.725 75.1133 267.16 76.9967C268.422 78.6725 270.039 80.0485 271.895 81.026C279.052 84.612 264.358 97.8731 264.358 97.8731Z" fill="#F8BDC5"/>
<g opacity="0.1">
<path opacity="0.1" d="M263.656 70.8487C262.601 72.2251 261.189 73.2867 259.573 73.9188C257.958 74.5508 256.201 74.7292 254.491 74.4347C254.393 72.4259 253.977 70.421 252.886 69.1969C250.018 65.9719 262.205 66.5094 262.205 66.5094C262.578 67.9903 263.064 69.4409 263.656 70.8487Z" fill="#1B1A1F"/>
</g>
<path d="M256.112 74.0423C261.357 74.0423 265.61 69.7897 265.61 64.5438C265.61 59.2979 261.357 55.0452 256.112 55.0452C250.866 55.0452 246.613 59.2979 246.613 64.5438C246.613 69.7897 250.866 74.0423 256.112 74.0423Z" fill="#F8BDC5"/>
<path d="M295.538 80.8495C295.071 83.335 294.773 85.849 294.643 88.3745C294.498 91.6035 292.199 103.311 291.359 107.489C291.253 108.025 291.017 108.526 290.67 108.949C290.324 109.371 289.879 109.701 289.374 109.91C287.044 110.863 282.806 111.397 279.958 104.684C278.352 100.99 277.049 97.172 276.062 93.267C275.713 91.9544 275.451 90.6202 275.277 89.273L281.555 85.8675C282.146 86.4203 282.646 87.0624 283.038 87.7703C283.905 89.2573 284.795 91.6427 284.607 95.0051L286.569 97.8731C286.569 97.8731 291.406 82.819 290.492 80.1315C289.578 77.444 293.36 76.726 293.36 76.726C293.36 76.726 303.934 68.4869 305.189 69.7384C306.445 70.99 301.45 77.2635 295.538 80.8495Z" fill="#F8BDC5"/>
<path d="M244.106 88.0175C243.616 89.4193 243.053 90.7944 242.419 92.1371C240.308 96.6764 236.173 103.907 229.77 108.09C219.914 114.54 222.064 101.459 222.064 101.459C222.064 101.459 224.477 85.9067 224.932 84.4354C225.65 82.1049 225.289 78.5229 225.289 78.5229C221.527 76.7299 217.227 65.4423 218.478 64.5438C219.73 63.6454 228.679 74.0424 228.679 74.0424C228.679 74.0424 232.803 76.0041 230.641 79.2409C228.479 82.4777 229.385 96.802 229.385 96.802L233.532 91.0777C234.455 88.6892 235.694 86.4353 237.216 84.3766C238.001 83.3055 238.55 82.6581 238.55 82.6581L244.106 88.0175Z" fill="#F8BDC5"/>
<g opacity="0.1">
<path opacity="0.1" d="M283.042 87.7703C281.723 88.2568 276.619 90.3166 276.054 93.2631C275.705 91.9504 275.443 90.6162 275.269 89.269L281.547 85.8635C282.142 86.4166 282.647 87.0601 283.042 87.7703Z" fill="#1B1A1F"/>
</g>
<g opacity="0.1">
<path opacity="0.1" d="M244.106 88.0175C243.616 89.4193 243.053 90.7944 242.419 92.1371C242.176 90.3637 241.175 85.8282 237.216 84.3648C238.001 83.2937 238.55 82.6464 238.55 82.6464L244.106 88.0175Z" fill="#1B1A1F"/>
</g>
<g opacity="0.1">
<path opacity="0.1" d="M264.358 97.8731H253.961V81.026C254.27 79.408 254.451 77.7682 254.503 76.1218C256.641 78.1855 256.111 81.383 256.111 81.383L261.667 93.9379L264.358 82.8386L263.464 81.4066L267.152 77.0202C268.414 78.6961 270.031 80.072 271.887 81.0496C279.052 84.612 264.358 97.8731 264.358 97.8731Z" fill="#1B1A1F"/>
</g>
<g opacity="0.1">
<path opacity="0.1" d="M271.703 132.273C271.703 132.273 263.558 131.626 256.492 131.32L255.782 131.289C254.778 131.249 253.82 131.218 252.883 131.194C246.024 131.03 238.268 128.632 236.95 128.213C237.444 127.446 237.979 126.706 238.55 125.996L249.304 128.35C249.304 128.35 250.999 128.891 254.766 130.559L248.586 125.996L267.419 129.401C267.419 129.401 268.074 129.319 271.538 131.257L271.703 132.273Z" fill="#1B1A1F"/>
</g>
<path d="M264.358 83.537L263.464 82.105L267.442 77.3459C267.442 77.3459 275.646 81.3674 277.796 80.4846C277.796 80.4846 282.995 84.8003 283.171 87.2956C283.171 87.2956 275.646 89.8027 275.823 93.573C275.999 97.3434 272.252 105.398 272.252 105.398L270.683 111.84C269.717 115.745 269.584 119.808 270.291 123.768L271.723 131.744C271.723 131.744 260.431 130.849 252.89 130.669C245.35 130.488 236.761 127.624 236.761 127.624L241.159 118.369C242.745 115.029 243.522 111.362 243.427 107.666L243.035 92.6824C243.035 92.6824 242.678 85.1574 236.757 83.9019C236.757 83.9019 239.982 77.2713 244.997 77.8088C244.997 77.8088 252.302 74.7604 254.472 76.8201C256.641 78.8799 256.108 82.1089 256.108 82.1089L261.663 94.6638L264.358 83.537Z" fill="#ED677B"/>
<g opacity="0.1">
<path opacity="0.1" d="M249.257 62.586C250.697 62.586 251.827 61.0598 253.267 61.1383C254.012 61.1775 254.652 61.6523 255.268 62.0799C257.596 63.6917 260.186 64.8865 262.922 65.611C263.986 65.8935 265.112 66.1053 266.179 65.8464C267.246 65.5874 268.247 64.7478 268.368 63.6532C268.398 63.1708 268.334 62.6871 268.18 62.229C266.972 58.0201 264.238 54.4125 260.514 52.1106C259.023 51.1964 257.202 50.498 255.55 51.0709C254.06 51.5848 253.098 52.9816 252.019 54.1311C251.206 54.9919 250.283 55.7412 249.273 56.3596C248.488 56.8343 247.311 57.1443 246.86 58.0153C246.009 59.6396 247.347 62.5703 249.257 62.586Z" fill="#1B1A1F"/>
</g>
<path d="M249.257 62.229C250.697 62.229 251.827 60.7028 253.267 60.7813C254.012 60.8205 254.652 61.2953 255.268 61.7229C257.596 63.3347 260.186 64.5295 262.922 65.254C263.986 65.5365 265.112 65.7483 266.179 65.4894C267.246 65.2304 268.247 64.3908 268.368 63.2962C268.398 62.8138 268.334 62.3301 268.18 61.872C266.972 57.6631 264.238 54.0556 260.514 51.7536C259.023 50.8394 257.202 50.1411 255.55 50.7139C254.06 51.2278 253.098 52.6246 252.019 53.7741C251.206 54.6349 250.283 55.3842 249.273 56.0026C248.488 56.4773 247.311 56.7873 246.86 57.6583C246.009 59.2983 247.347 62.2094 249.257 62.229Z" fill="#85555C"/>
<path opacity="0.05" d="M244.914 103.158C244.914 103.158 253.695 106.383 259.431 103.876L262.299 104.056C262.299 104.056 267.066 107.399 272.107 105.904" fill="#1B1A1F"/>
<path opacity="0.05" d="M286.49 97.7828C286.49 97.7828 285.058 101.188 285.772 102.263L286.49 97.7828Z" fill="#1B1A1F"/>
<path opacity="0.05" d="M229.323 96.7078C229.323 96.7078 230.04 100.113 229.323 101.188V96.7078Z" fill="#1B1A1F"/>
<path d="M377.949 174.309C377.949 174.309 361.533 190.724 370.8 215.081C380.067 239.437 354.918 279.942 354.918 279.942C354.918 279.942 355.189 279.903 355.703 279.817C389.417 273.865 406.166 235.31 387.42 206.665C380.432 196.013 374.712 183.521 377.949 174.309Z" fill="#F50057"/>
<path opacity="0.1" d="M377.949 174.583C377.949 174.583 361.533 190.999 370.8 215.355C380.067 239.712 354.918 280.213 354.918 280.213C354.918 280.213 355.189 280.174 355.703 280.087C389.417 274.136 406.166 235.58 387.42 206.936C380.432 196.288 374.712 183.796 377.949 174.583Z" fill="#1B1A1F"/>
<path d="M377.949 174.309C377.949 174.309 368.682 194.428 377.949 210.843C387.216 227.259 379.518 273.323 354.914 279.942" stroke="#535461" stroke-width="0.39234" stroke-miterlimit="10"/>
<path d="M407.186 240.7C407.186 240.7 388.455 237.719 386.749 254.503C385.042 271.287 350.72 273.614 350.72 273.614L351.364 274.041C379.691 292.638 406.774 285.886 402.69 261.192C401.183 252.015 401.309 242.795 407.186 240.7Z" fill="#F50057"/>
<path d="M407.186 240.7C407.186 240.7 392.646 243.89 393.846 257.112C395.047 270.334 372.268 286.18 350.736 273.618" stroke="#535461" stroke-width="0.39234" stroke-miterlimit="10"/>
<path d="M390.708 274.226C390.708 274.226 375.956 271.275 372.02 267.34C368.085 263.405 350.383 256.523 348.417 261.455C346.452 266.387 321.864 283.093 338.581 286.043C355.299 288.993 377.921 289.966 382.837 288.005C387.753 286.043 390.708 274.226 390.708 274.226Z" fill="#A8A8A8"/>
<path opacity="0.2" d="M338.581 284.203C355.303 287.153 377.921 288.126 382.837 286.165C386.584 284.666 389.185 277.47 390.213 274.12L390.704 274.222C390.704 274.222 387.753 286.023 382.837 287.989C377.921 289.955 355.299 288.974 338.581 286.027C333.756 285.176 332.375 283.175 332.896 280.644C333.304 282.296 334.988 283.567 338.581 284.203Z" fill="#1B1A1F"/>
<defs>
<linearGradient id="paint0_linear" x1="204.778" y1="292.846" x2="204.778" y2="8.79236" gradientUnits="userSpaceOnUse">
<stop stop-color="#808080" stop-opacity="0.25"/>
<stop offset="0.54" stop-color="#808080" stop-opacity="0.12"/>
<stop offset="1" stop-color="#808080" stop-opacity="0.1"/>
</linearGradient>
<linearGradient id="paint1_linear" x1="68660.4" y1="97598.7" x2="68660.4" y2="29372.8" gradientUnits="userSpaceOnUse">
<stop stop-color="#808080" stop-opacity="0.25"/>
<stop offset="0.54" stop-color="#808080" stop-opacity="0.12"/>
<stop offset="1" stop-color="#808080" stop-opacity="0.1"/>
</linearGradient>
</defs>
</svg>
