<svg width="80" height="80" viewBox="0 0 80 80" fill="none" xmlns="http://www.w3.org/2000/svg">
<path d="M0 0H9H39H73H80V7V73V80H73V76.5H9V80H0V59V51.5V25V18.5V10.5V0Z" fill="#EBDF39"/>
<path d="M52.1338 46.1572C52.1338 50.861 51.0514 54.4336 48.8867 56.875C46.7383 59.3001 43.8249 60.5127 40.1465 60.5127C36.4355 60.5127 33.4977 59.3001 31.333 56.875C29.1683 54.4336 28.0859 50.861 28.0859 46.1572V38.3203C28.0859 33.6328 29.1602 30.0684 31.3086 27.627C33.4733 25.1693 36.403 23.9404 40.0977 23.9404C43.776 23.9404 46.6976 25.1693 48.8623 27.627C51.0433 30.0684 52.1338 33.6328 52.1338 38.3203V46.1572ZM45.0293 37.5879C45.0293 34.7721 44.6061 32.7132 43.7598 31.4111C42.9134 30.0928 41.6927 29.4336 40.0977 29.4336C38.4863 29.4336 37.2656 30.0846 36.4355 31.3867C35.6055 32.6888 35.1904 34.7559 35.1904 37.5879V46.8408C35.1904 49.7054 35.6055 51.7887 36.4355 53.0908C37.2819 54.3929 38.5189 55.0439 40.1465 55.0439C41.7415 55.0439 42.9541 54.3929 43.7842 53.0908C44.6143 51.7887 45.0293 49.7054 45.0293 46.8408V37.5879Z" fill="#161718"/>
</svg>
