<svg width="31" height="27" viewBox="0 0 31 27" fill="none" xmlns="http://www.w3.org/2000/svg">
<path d="M17.7143 -1.52588e-05C10.3776 -1.52588e-05 4.42857 6.04499 4.42857 13.5H0L5.74238 19.335L5.84571 19.545L11.8095 13.5H7.38095C7.38095 7.69499 12.0014 2.99999 17.7143 2.99999C23.4271 2.99999 28.0476 7.69499 28.0476 13.5C28.0476 19.305 23.4271 24 17.7143 24C14.8652 24 12.2819 22.815 10.4219 20.91L8.32571 23.04C10.7319 25.485 14.0386 27 17.7143 27C25.051 27 31 20.955 31 13.5C31 6.04499 25.051 -1.52588e-05 17.7143 -1.52588e-05ZM16.2381 7.49999V15L22.5562 18.81L23.619 16.995L18.4524 13.875V7.49999H16.2381Z" fill="#5FBBE2"/>
</svg>
